<?xml version="1.0" standalone="no"?><!DOCTYPE svg PUBLIC "-//W3C//DTD SVG 1.1//EN" "http://www.w3.org/Graphics/SVG/1.1/DTD/svg11.dtd"><svg t="1777617208013" class="icon" viewBox="0 0 1024 1024" version="1.1" xmlns="http://www.w3.org/2000/svg" p-id="1651" xmlns:xlink="http://www.w3.org/1999/xlink" width="200" height="200"><path d="M896 251.8v520.5c0 15.1-2.7 29.6-7.7 43h-724V196.4h718.5c8.4 16.6 13.2 35.5 13.2 55.4z" fill="#FFFFFF" p-id="1652"></path><path d="M528.9 602.8C474.4 673.7 405 718 335.5 718c-119.5 0-154.8-93.9-95.8-145.2 19.7-17.4 55.7-25.8 74.9-27.7 71-7 136.7 20 214.3 57.7z" fill="#FFFFFF" p-id="1653"></path><path d="M314.7 545.1c-19.2 1.9-55.2 10.4-74.9 27.7C180.7 624.1 216 718 335.5 718c69.4 0 138.8-44.3 193.4-115.2-77.6-37.7-143.3-64.7-214.2-57.7z" fill="#4F8ADF" p-id="1654"></path><path d="M642.4 567.4C670 519.6 692 465.1 706.5 406H555.1v-54.5h185.6v-30.4H555.2v-90.6h-75.7c-13.3 0-13.3 13.1-13.3 13.1v77.6H278.6v30.4h187.6V406H311.3v30.5h300.5c-11 37.7-25.8 73.2-43.3 105.4-97.5-32.1-201.5-58.1-266.8-42.1-41.8 10.3-68.7 28.6-84.5 47.8-72.6 88-20.5 221.7 132.7 221.7 90.6 0 177.9-50.4 245.5-133.4C696.2 684.3 896 767.3 896 767.3v5c0 15.1-2.7 29.6-7.7 43C870.8 861.8 825.8 895 773 895H251c-68 0-123-55-123-122.7V251.8c0-67.8 55-122.7 123-122.7h522c48 0 89.5 27.4 109.8 67.3 8.4 16.6 13.2 35.5 13.2 55.4v397.1h-0.1c-1.7-0.2-28.8-3.2-135.6-38.9-30.7-10.3-72-26-117.9-42.6z" fill="#4F8ADF" p-id="1655"></path></svg>